# xmcd
#
# Track frame offsets: 
#        150
#        15501
#        33874
#        52526
#        68254
#        83679
#        101559
#        115636
#        142924
#
# Disc length: 2144 seconds
#
# Revision: 0
# Processed by: cddbd v1.5.2PL0 Copyright (c) Steve Scherf et al.
# Submitted via: ExactAudioCopyFreeDBPlugin 1.0
#
DISCID=54085e09
DTITLE=Digger Barnes - Every Story True
DYEAR=2012
DGENRE=Country
TTITLE0=Long Way
TTITLE1=Pure As Gold
TTITLE2=Devil's Child
TTITLE3=Oh Sister
TTITLE4=There's A Fire
TTITLE5=The Letter
TTITLE6=So Low
TTITLE7=The Real Way
TTITLE8=Losing Ground
EXTD=
EXTT0=
EXTT1=
EXTT2=
EXTT3=
EXTT4=
EXTT5=
EXTT6=
EXTT7=
EXTT8=
PLAYORDER=
